<svg width="580" height="400" xmlns="http://www.w3.org/2000/svg">
 <!-- Created with Method Draw - http://github.com/duopixel/Method-Draw/ -->
 <g>
  <title>background</title>
  <rect fill="#fff" id="canvas_background" height="402" width="582" y="-1" x="-1"/>
  <g display="none" overflow="visible" y="0" x="0" height="100%" width="100%" id="canvasGrid">
   <rect fill="url(#gridpattern)" stroke-width="0" y="0" x="0" height="100%" width="100%"/>
  </g>
 </g>
 <g>
  <title>Layer 1</title>
  <rect id="svg_1" height="242" width="84" y="89.1" x="194.5" stroke-width="1.5" stroke="#000" fill="#fff"/>
  <path id="svg_2" d="m165.5,117.1c120,44 119,-130 73,-1c-46,129 -96,-42 -45,18c51,60 80,60 23,-32c-57,-92 -20,240 16,172c36,-68 28,-197 -4,-116c-32,81 56,-70 46,25c-10,95 -229,-110 -109,-66z" stroke-width="1.5" stroke="#000" fill="#fff"/>
 </g>
</svg>